<?xml version="1.0" standalone="no"?>
<!DOCTYPE svg PUBLIC "-//W3C//DTD SVG 20010904//EN"
 "http://www.w3.org/TR/2001/REC-SVG-20010904/DTD/svg10.dtd">
<svg version="1.0" xmlns="http://www.w3.org/2000/svg"
 width="512.000000pt" height="512.000000pt" viewBox="0 0 512.000000 512.000000"
 preserveAspectRatio="xMidYMid meet">
<metadata>
Created by potrace 1.14, written by Peter Selinger 2001-2017
</metadata>
<g transform="translate(0.000000,512.000000) scale(0.100000,-0.100000)"
fill="#000000" stroke="none">
<path d="M1670 4955 l0 -165 -335 0 -335 0 0 -168 0 -168 -165 1 c-142 1 -165
-1 -166 -15 -1 -8 -2 -82 -3 -165 l-1 -150 -167 -3 -168 -2 0 -335 0 -335
-165 0 -165 0 0 -890 0 -890 165 0 165 0 0 -335 0 -335 168 0 169 0 -1 -165
c-1 -102 3 -166 9 -168 6 -1 81 -2 168 -2 l157 1 0 -168 0 -168 335 0 335 0 0
-165 0 -165 890 0 890 0 0 165 0 165 335 0 335 0 0 168 0 167 158 0 c86 -1
162 0 167 2 7 2 10 63 10 168 l-1 165 168 0 168 0 0 335 0 335 165 0 165 0 0
890 0 890 -165 0 -165 0 0 335 0 335 -167 2 -168 3 -1 150 c-1 83 -2 157 -3
165 -1 13 -25 15 -163 15 l-163 0 -3 168 -2 167 -335 0 -335 0 0 165 0 165
-890 0 -890 0 0 -165z"/>
</g>
</svg>
